<svg width="41" height="8" viewBox="0 0 41 8" fill="none" xmlns="http://www.w3.org/2000/svg">
<g id="Group 33862">
<path id="Vector" opacity="0.5" fill-rule="evenodd" clip-rule="evenodd" d="M3.247 4.92402L5.727 6.52982C6.123 6.80281 6.123 7.24592 5.727 7.51962C5.332 7.79262 4.69 7.79262 4.295 7.51962L0.445 4.96671C0.157001 4.76861 0 4.50611 0 4.22401C0 3.94402 0.158001 3.67942 0.444 3.48202L4.294 0.929115C4.69 0.656115 5.332 0.656115 5.728 0.929115C6.123 1.20212 6.123 1.64522 5.728 1.91892L3.248 3.52402H40C40.553 3.52402 41 3.83622 41 4.22401C41 4.60901 40.552 4.92402 40 4.92402H3.247Z" fill="black"/>
</g>
</svg>
