<svg width="34" height="34" viewBox="0 0 34 34" fill="none" xmlns="http://www.w3.org/2000/svg">
<g id="Group 33830">
<rect id="Rectangle 469" width="34" height="34" fill="black"/>
<path id="Vector" fill-rule="evenodd" clip-rule="evenodd" d="M23 17.9995L20.52 20.2935C20.124 20.6835 20.124 21.3165 20.52 21.7075C20.915 22.0975 21.557 22.0975 21.952 21.7075L25.802 18.0605C26.09 17.7775 26.247 17.4025 26.247 16.9995C26.247 16.5995 26.089 16.2215 25.803 15.9395L21.953 12.2925C21.557 11.9025 20.915 11.9025 20.519 12.2925C20.124 12.6825 20.124 13.3155 20.519 13.7065L22.999 15.9995H8C7.447 15.9995 7 16.4455 7 16.9995C7 17.5495 7.448 17.9995 8 17.9995H23Z" fill="white"/>
</g>
</svg>
