<svg width="24" height="24" viewBox="0 0 24 24" fill="none" xmlns="http://www.w3.org/2000/svg">
<rect width="24" height="24" fill="#F5F5F5"/>
<g id="Index Changes" clip-path="url(#clip0_0_1)">
<rect width="1600" height="4463" transform="translate(-895 -994)" fill="white"/>
<g id="Group 1707478309">
<g id="Group 33858">
<g id="Group">
<g id="Clip path group">
<mask id="mask0_0_1" style="mask-type:luminance" maskUnits="userSpaceOnUse" x="0" y="0" width="24" height="24">
<g id="a">
<path id="Vector" d="M23.6236 23.0161V1.1008H0.375V23.0161H23.6236Z" fill="white" stroke="white" stroke-width="0.75"/>
</g>
</mask>
<g mask="url(#mask0_0_1)">
<g id="Group_2">
<path id="Vector_2" d="M23.647 12.0584C23.647 18.1339 18.4321 23.0591 11.9993 23.0591C5.56638 23.0591 0.351524 18.1339 0.351524 12.0584C0.351524 5.98294 5.56638 1.05779 11.9993 1.05779C18.4321 1.05779 23.647 5.98294 23.647 12.0584Z" stroke="#DCA827" stroke-width="0.75" stroke-miterlimit="10" stroke-linecap="round" stroke-linejoin="round"/>
<path id="Vector_3" d="M13.1269 19.8657V17.0333C13.1269 16.0055 13.6044 15.0483 14.3774 14.3249C14.3846 14.3181 14.3919 14.3113 14.3991 14.3044C15.1651 13.5744 16.1785 13.1234 17.2668 13.1234H20.2659" stroke="#DCA827" stroke-width="0.75" stroke-miterlimit="10" stroke-linecap="round" stroke-linejoin="round"/>
<path id="Vector_4" d="M3.73332 13.1231H6.73239C7.82062 13.1231 8.83409 13.5741 9.60013 14.3042L9.62178 14.3246C10.3948 15.048 10.8723 16.0052 10.8723 17.033V19.8655" stroke="#DCA827" stroke-width="0.75" stroke-miterlimit="10" stroke-linecap="round" stroke-linejoin="round"/>
<path id="Vector_5" d="M20.2656 10.9939H17.2668C16.1912 10.9939 15.1729 10.5671 14.4252 9.83681C13.8115 9.23756 12.9522 8.86473 11.9995 8.86473C11.0467 8.86473 10.1874 9.23756 9.57378 9.83681C8.82608 10.5671 7.80773 10.9939 6.73216 10.9939H3.73332" stroke="#DCA827" stroke-width="0.75" stroke-miterlimit="10" stroke-linecap="round" stroke-linejoin="round"/>
<path id="Vector_6" d="M12.6829 10.4095C12.4707 10.331 12.2415 10.2841 11.9997 10.2841C10.9622 10.2841 10.1211 11.0785 10.1211 12.0585C10.1211 13.0384 10.9622 13.8328 11.9997 13.8328C13.0373 13.8328 13.8784 13.0384 13.8784 12.0585C13.8784 11.8302 13.8288 11.6136 13.7456 11.4132" stroke="#DCA827" stroke-width="0.75" stroke-miterlimit="10" stroke-linecap="round" stroke-linejoin="round"/>
<path id="Vector_7" d="M4.85128 6.31197C3.88108 7.38769 3.17368 8.68147 2.8347 10.1087C2.77035 10.3798 2.98408 10.6393 3.27821 10.6393C3.52916 10.6393 3.73263 10.8314 3.73263 11.0685V13.049C3.73263 13.286 3.52916 13.4781 3.27821 13.4781H3.27797C2.98324 13.4781 2.77044 13.7383 2.83498 14.0099C3.62708 17.3425 6.40421 19.9653 9.93284 20.7134C10.2204 20.7743 10.4959 20.5734 10.4959 20.2951V20.2948C10.4959 20.0578 10.6993 19.8656 10.9503 19.8656H13.0473C13.2983 19.8656 13.5017 20.0578 13.5017 20.2948V20.2951C13.5017 20.5734 13.7772 20.7743 14.0647 20.7134C15.5756 20.3931 16.9468 19.727 18.0853 18.8108" stroke="#DCA827" stroke-width="0.75" stroke-miterlimit="10" stroke-linecap="round" stroke-linejoin="round"/>
<path id="Vector_8" d="M19.1484 17.8071C20.1185 16.7319 20.8238 15.4369 21.163 14.0099C21.2275 13.7384 21.0147 13.4782 20.72 13.4782H20.7197C20.6601 13.4782 20.601 13.4671 20.5458 13.4455C20.4907 13.424 20.4406 13.3924 20.3984 13.3525C20.3562 13.3126 20.3227 13.2653 20.2999 13.2133C20.277 13.1612 20.2653 13.1054 20.2653 13.049V11.0685C20.2653 11.0122 20.277 10.9564 20.2999 10.9043C20.3227 10.8522 20.3562 10.8049 20.3984 10.765C20.4406 10.7252 20.4907 10.6936 20.5458 10.672C20.601 10.6504 20.6601 10.6394 20.7197 10.6394C21.0139 10.6394 21.2276 10.3799 21.1632 10.1088C20.2224 6.14751 16.4774 3.1873 11.9992 3.1873C9.6758 3.1873 7.55427 3.98882 5.91482 5.3088" stroke="#DCA827" stroke-width="0.75" stroke-miterlimit="10" stroke-linecap="round" stroke-linejoin="round"/>
</g>
</g>
</g>
</g>
</g>
</g>
</g>
<defs>
<clipPath id="clip0_0_1">
<rect width="1600" height="4463" fill="white" transform="translate(-895 -994)"/>
</clipPath>
</defs>
</svg>
