<svg width="24" height="24" viewBox="0 0 24 24" fill="none" xmlns="http://www.w3.org/2000/svg">
<mask id="mask0_1_207" style="mask-type:luminance" maskUnits="userSpaceOnUse" x="0" y="0" width="24" height="24">
<path d="M23.625 23.0161V1.09945H0.375V23.0161H23.625Z" fill="white" stroke="white" stroke-width="0.75"/>
</mask>
<g mask="url(#mask0_1_207)">
<path d="M1.87207 7.16431H6.88071V5.75282C6.88071 5.30768 6.49863 4.94682 6.02735 4.94682H2.72548C2.25415 4.94682 1.87207 5.30768 1.87207 5.75282V7.16431Z" stroke="#444444" stroke-width="0.75" stroke-miterlimit="10" stroke-linecap="round" stroke-linejoin="round"/>
<path d="M3.5752 2.33969H5.17954V4.94653H3.5752V2.33969Z" stroke="#444444" stroke-width="0.75" stroke-miterlimit="10" stroke-linecap="round" stroke-linejoin="round"/>
<path d="M8.96174 3.40071L7.73765 2.34012H2.1771C2.13714 2.34012 2.09757 2.33269 2.06065 2.31825C2.02374 2.30381 1.99019 2.28265 1.96194 2.25596C1.93368 2.22928 1.91127 2.1976 1.89598 2.16273C1.88069 2.12786 1.87283 2.09049 1.87283 2.05275V1.34416C1.87283 1.30642 1.88069 1.26905 1.89598 1.23418C1.91127 1.19931 1.93368 1.16763 1.96194 1.14095C1.99019 1.11426 2.02374 1.0931 2.06065 1.07866C2.09757 1.06422 2.13714 1.05679 2.1771 1.05679H8.00207C8.17218 1.05679 8.33605 1.11705 8.46135 1.2256L9.8803 2.455C9.93977 2.50652 9.97514 2.57825 9.97862 2.65439C9.9821 2.73054 9.95341 2.80488 9.89886 2.86105L9.39163 3.38318C9.36462 3.411 9.33208 3.43351 9.29586 3.44945C9.25964 3.46538 9.22045 3.47442 9.18053 3.47605C9.14061 3.47768 9.10074 3.47186 9.0632 3.45894C9.02566 3.44601 8.99118 3.42623 8.96174 3.40071Z" stroke="#444444" stroke-width="0.75" stroke-miterlimit="10" stroke-linecap="round" stroke-linejoin="round"/>
<path d="M0.926956 13.6168V8.00337C0.926956 7.53981 1.32511 7.16382 1.81589 7.16382H6.93821C7.42899 7.16382 7.82714 7.53981 7.82714 8.00337V22.2195C7.82714 22.6831 7.42899 23.0591 6.93821 23.0591H1.81589C1.32511 23.0591 0.926956 22.6831 0.926956 22.2195V15.1821" stroke="#444444" stroke-width="0.75" stroke-miterlimit="10" stroke-linecap="round" stroke-linejoin="round"/>
<path d="M7.82714 13.6169H0.926956V11.1358H7.82714V13.6169Z" stroke="#444444" stroke-width="0.75" stroke-miterlimit="10" stroke-linecap="round" stroke-linejoin="round"/>
<path d="M20.5745 21.4246H11.7803C11.2436 21.4246 10.8086 21.0137 10.8086 20.5069V20.4776C10.8086 19.1337 11.9621 18.0442 13.3851 18.0442H18.9697C20.3927 18.0442 21.5462 19.1337 21.5462 20.4776V20.5069C21.5462 21.0137 21.1112 21.4246 20.5745 21.4246Z" stroke="#444444" stroke-width="0.75" stroke-miterlimit="10" stroke-linecap="round" stroke-linejoin="round"/>
<path d="M22.3692 21.424H9.98704C9.59765 21.424 9.28204 21.7221 9.28204 22.0898V22.3876C9.28204 22.7554 9.59765 23.0535 9.98704 23.0535H22.3692C22.7585 23.0535 23.0742 22.7554 23.0742 22.3876V22.0898C23.0742 21.7221 22.7585 21.424 22.3692 21.424Z" stroke="#444444" stroke-width="0.75" stroke-miterlimit="10" stroke-linecap="round" stroke-linejoin="round"/>
<path d="M9.28204 22.0903V10.3483C9.28204 9.88478 9.68015 9.50879 10.171 9.50879H15.2932C15.7841 9.50879 16.1822 9.88478 16.1822 10.3483V16.5844" stroke="#444444" stroke-width="0.75" stroke-miterlimit="10" stroke-linecap="round" stroke-linejoin="round"/>
<path d="M15.293 9.50879H10.1708V8.4551C10.1708 8.12333 10.4555 7.85439 10.8068 7.85439H14.657C15.0083 7.85439 15.293 8.12333 15.293 8.4551V9.50879Z" stroke="#444444" stroke-width="0.75" stroke-miterlimit="10" stroke-linecap="round" stroke-linejoin="round"/>
<path d="M12.4258 13.906L13.038 13.3279" stroke="#444444" stroke-width="0.75" stroke-miterlimit="10" stroke-linecap="round" stroke-linejoin="round"/>
<path d="M14.7907 13.6167C14.7907 14.6906 13.8689 15.5613 12.7318 15.5613C11.5947 15.5613 10.6729 14.6906 10.6729 13.6167C10.6729 12.5428 11.5947 11.6722 12.7318 11.6722C13.8689 11.6722 14.7907 12.5428 14.7907 13.6167Z" stroke="#444444" stroke-width="0.75" stroke-miterlimit="10" stroke-linecap="round" stroke-linejoin="round"/>
<path d="M22.0051 1.05657V2.44189" stroke="#444444" stroke-width="0.75" stroke-miterlimit="10" stroke-linecap="round" stroke-linejoin="round"/>
<path d="M22.7384 1.74927H21.2716" stroke="#444444" stroke-width="0.75" stroke-miterlimit="10" stroke-linecap="round" stroke-linejoin="round"/>
<path d="M18.9 4.14025H18.1057V3.39004C18.1057 3.05424 17.8174 2.78198 17.4618 2.78198C17.1063 2.78198 16.818 3.05424 16.818 3.39004V4.14025H16.0237C15.6681 4.14025 15.3799 4.41247 15.3799 4.74831C15.3799 5.0841 15.6681 5.35637 16.0237 5.35637H16.818V6.10658C16.818 6.44238 17.1063 6.7146 17.4618 6.7146C17.8174 6.7146 18.1057 6.44238 18.1057 6.10658V5.35637H18.9C19.2556 5.35637 19.5438 5.0841 19.5438 4.74831C19.5438 4.41247 19.2556 4.14025 18.9 4.14025Z" stroke="#444444" stroke-width="0.75" stroke-miterlimit="10" stroke-linecap="round" stroke-linejoin="round"/>
</g>
</svg>
