<svg width="24" height="23" viewBox="0 0 24 23" fill="none" xmlns="http://www.w3.org/2000/svg">
<g id="Group">
<path id="Vector" d="M19.2487 5.12206V4.07361H20.134C20.6378 4.07361 21.0476 3.68651 21.0476 3.21071V2.8994C21.0476 2.15487 20.6509 1.47009 19.9867 1.06758C19.9105 1.02142 19.8181 1.00572 19.7296 1.02396C19.6412 1.04219 19.564 1.09286 19.5152 1.16481C19.4663 1.23677 19.4497 1.32411 19.469 1.40764C19.4883 1.49116 19.5419 1.56402 19.6181 1.61019C20.4315 2.10309 20.365 2.87763 20.365 3.21066C20.3649 3.26851 20.3405 3.32397 20.2972 3.36487C20.2539 3.40577 20.1952 3.42878 20.1339 3.42885H11.2199C11.1587 3.42878 11.1 3.40577 11.0567 3.36487C11.0134 3.32397 10.989 3.26851 10.9889 3.21066V2.89945C10.9889 2.0556 11.7158 1.36908 12.6093 1.36908H18.4969C18.5875 1.36908 18.6743 1.33512 18.7383 1.27466C18.8023 1.21421 18.8383 1.13222 18.8383 1.04672C18.8383 0.961228 18.8023 0.879235 18.7383 0.818782C18.6743 0.758328 18.5875 0.724365 18.4969 0.724365H12.6093C11.3394 0.724365 10.3063 1.70012 10.3063 2.89945V3.21071C10.3063 3.68651 10.7162 4.07361 11.2199 4.07361H12.1053V5.12198C11.4975 5.15843 10.9045 5.32493 10.3766 5.60915C10.2992 5.6521 10.2428 5.7221 10.2197 5.804C10.1966 5.8859 10.2085 5.9731 10.253 6.04674C10.2974 6.12037 10.3708 6.17451 10.4572 6.19744C10.5436 6.22037 10.6361 6.21024 10.7146 6.16924C11.2132 5.90085 11.7821 5.75897 12.3597 5.75897H18.9943C20.8286 5.75897 22.3209 7.16855 22.3209 8.90123V18.6671C22.3209 20.3997 20.8286 21.8093 18.9943 21.8093C11.7538 21.8093 12.0682 21.8481 11.4937 21.7019C13.7929 19.8302 12.3872 16.2551 9.35429 16.2551H9.03259V8.90119C9.03259 8.18186 9.29646 7.47883 9.77562 6.92167C9.80388 6.88881 9.82501 6.85102 9.83781 6.81045C9.8506 6.76988 9.85481 6.72733 9.85019 6.68522C9.84557 6.64312 9.83221 6.60228 9.81088 6.56505C9.78955 6.52782 9.76067 6.49492 9.72588 6.46824C9.69109 6.44155 9.65107 6.42159 9.60812 6.40951C9.56516 6.39743 9.5201 6.39345 9.47552 6.39782C9.43094 6.40218 9.3877 6.41479 9.34828 6.43494C9.30886 6.45508 9.27403 6.48236 9.24577 6.51522C8.66815 7.18693 8.34999 8.03425 8.34999 8.90119V16.255H3.28176C1.47219 16.255 0 17.6454 0 19.3545C0 21.0635 1.47219 22.4539 3.28176 22.4539H9.35429C9.84708 22.4544 10.3336 22.3495 10.7773 22.147C11.2774 22.3506 11.8088 22.454 12.3596 22.454H18.9943C21.205 22.454 23.0035 20.7552 23.0035 18.667V8.90119C23.0036 6.89379 21.3413 5.2465 19.2487 5.12206ZM18.5661 5.11425H12.7879V4.07369H18.5661V5.11425ZM5.97673 21.8092H3.28176C1.84858 21.8092 0.68264 20.708 0.68264 19.3544C0.68264 18.0009 1.84862 16.8997 3.28176 16.8997H5.97673V21.8092ZM9.35434 21.8092H6.65937V16.8998H9.35434C10.7875 16.8998 11.9535 18.001 11.9535 19.3545C11.9535 20.708 10.7875 21.8092 9.35434 21.8092Z" fill="#444444"/>
<path id="Vector_2" d="M17.3491 9.36234C17.3491 8.74262 16.4838 8.48182 16.1206 9.0285L12.9311 13.8858C12.6756 14.2744 12.9709 14.7764 13.4449 14.7764H14.859C13.1786 18.2068 13.2496 18.0091 13.2496 18.2015C13.2496 18.7993 14.0686 19.0632 14.424 18.6093L16.4648 16.0109C16.5168 15.9422 16.5381 15.8569 16.5242 15.7735C16.5102 15.69 16.4622 15.6151 16.3904 15.5647C16.3185 15.5144 16.2286 15.4927 16.1401 15.5043C16.0515 15.5159 15.9712 15.5599 15.9166 15.6268L13.9979 18.0697L15.5213 14.9598C15.7108 14.5728 15.4135 14.1318 14.9717 14.1318H13.5727L16.6202 9.49085C15.4289 12.7666 15.4936 12.5493 15.4936 12.6868C15.4936 13.0071 15.766 13.2676 16.1008 13.2676H17.7695L16.73 14.5912C16.677 14.6599 16.6549 14.7456 16.6685 14.8297C16.682 14.9137 16.7302 14.9892 16.8025 15.0399C16.8748 15.0905 16.9653 15.1121 17.0544 15.1001C17.1435 15.088 17.2239 15.0431 17.2781 14.9753C18.5049 13.4134 18.5171 13.4566 18.5171 13.2053C18.5171 12.8842 18.2446 12.623 17.9096 12.623H16.2028C17.4106 9.30233 17.3491 9.53168 17.3491 9.36234Z" fill="#444444"/>
</g>
</svg>
